<svg xmlns="http://www.w3.org/2000/svg" viewBox="0 0 512 512">
<defs><linearGradient id="g" x1="0" x2="1" y1="0" y2="1"><stop offset="0" stop-color="#0a84ff"/><stop offset="1" stop-color="#30d158"/></linearGradient></defs>
<rect width="512" height="512" rx="120" fill="#090d16"/><circle cx="256" cy="256" r="178" fill="url(#g)" opacity=".18"/>
<path d="M160 226h192c18 0 32 14 32 32v112c0 18-14 32-32 32H160c-18 0-32-14-32-32V258c0-18 14-32 32-32z" fill="url(#g)"/>
<path d="M184 226v-48c0-44 32-78 72-78s72 34 72 78v48h-48v-48c0-19-10-32-24-32s-24 13-24 32v48z" fill="#f7f8fb"/>
<circle cx="256" cy="310" r="28" fill="#090d16"/><path d="M244 330h24l14 44h-52z" fill="#090d16"/></svg>